<svg id="Group_343" data-name="Group 343" xmlns="http://www.w3.org/2000/svg" width="244.609" height="45.201" viewBox="0 0 244.609 45.201">
  <g id="Group_50" data-name="Group 50">
    <g id="Group_47" data-name="Group 47" transform="translate(48.44 23.828)">
      <path id="Path_16" data-name="Path 16" d="M286.726,348.8v9.1a4.171,4.171,0,1,0,8.34,0v-9.1h2.573v9.054a6.347,6.347,0,0,1-6.742,6.719c-4.1,0-6.815-2.669-6.815-6.719V348.8Z" transform="translate(-284.081 -346.775)" fill="#fff"/>
      <path id="Path_17" data-name="Path 17" d="M316.094,357.968v7.172h-2.621v-6.958a2.735,2.735,0,0,0-2.882-3,2.845,2.845,0,0,0-2.978,3v6.958h-2.621V353.226h2.287v1.549a4.963,4.963,0,0,1,8.815,3.193Z" transform="translate(-288.383 -347.626)" fill="#fff"/>
      <path id="Path_18" data-name="Path 18" d="M322.211,348.037A1.8,1.8,0,1,1,324,349.848,1.8,1.8,0,0,1,322.211,348.037Zm.5,3.812h2.573v11.914h-2.573Z" transform="translate(-291.926 -346.25)" fill="#fff"/>
      <path id="Path_19" data-name="Path 19" d="M340.967,353.491l-5.361,11.723h-1.62L328.6,353.491l.119-.191h2.526l3.549,8.673,3.717-8.673h2.335Z" transform="translate(-293.241 -347.7)" fill="#fff"/>
      <path id="Path_20" data-name="Path 20" d="M347.433,359.826a3.728,3.728,0,0,0,3.908,3.526,5.006,5.006,0,0,0,3.717-1.573h.214l1.311,1.191v.191a6.885,6.885,0,0,1-5.314,2.264,6.106,6.106,0,0,1-6.41-6.219,6.03,6.03,0,0,1,6.148-6.267,5.917,5.917,0,0,1,4.241,1.644,6.085,6.085,0,0,1,1.764,4.408,4.011,4.011,0,0,1-.072.834Zm.024-1.787h6.981a3.578,3.578,0,0,0-.952-2.073,3.581,3.581,0,0,0-6.028,2.073Z" transform="translate(-296.586 -347.626)" fill="#fff"/>
      <path id="Path_21" data-name="Path 21" d="M370.75,353.512l-.643,1.906-.214.1a2.368,2.368,0,0,0-1.31-.286c-1.62,0-2.645,1.406-2.645,3.312v6.6h-2.6V353.226h2.287V354.8a3.694,3.694,0,0,1,3.217-1.859,4.008,4.008,0,0,1,1.787.381Z" transform="translate(-300.388 -347.626)" fill="#fff"/>
      <path id="Path_22" data-name="Path 22" d="M373.24,363.251v-.191l1.311-1.311h.214a4.315,4.315,0,0,0,3.312,1.6c1.214,0,2.048-.572,2.048-1.406,0-1.12-1.144-1.525-2.43-2.025-1.811-.667-3.741-1.406-3.741-3.574,0-2.049,1.692-3.43,4.337-3.43a5.351,5.351,0,0,1,4.288,1.977v.214l-1.311,1.263h-.191a3.77,3.77,0,0,0-2.835-1.406c-1.048,0-1.764.5-1.764,1.239,0,.858,1,1.215,2.383,1.787,2.025.834,3.789,1.6,3.789,3.979,0,2.073-1.835,3.479-4.526,3.479A6.129,6.129,0,0,1,373.24,363.251Z" transform="translate(-302.425 -347.62)" fill="#fff"/>
      <path id="Path_23" data-name="Path 23" d="M387.85,348.037a1.8,1.8,0,1,1,1.787,1.811A1.8,1.8,0,0,1,387.85,348.037Zm.5,3.812h2.574v11.914H388.35Z" transform="translate(-305.431 -346.25)" fill="#fff"/>
      <path id="Path_24" data-name="Path 24" d="M403.128,363.4l-.071.214a4.185,4.185,0,0,1-2.621.882,3.7,3.7,0,0,1-3.932-4.075v-6.1h-2.025v-2.025H396.5v-3.6l2.407-.285.191.143v3.74h3.622v2.025H399.1v5.933c0,1.43.667,2,1.692,2a2.061,2.061,0,0,0,1.358-.548l.215.1Z" transform="translate(-306.795 -346.695)" fill="#fff"/>
      <path id="Path_25" data-name="Path 25" d="M418.41,353.491l-5.527,12.629c-1,2.263-2.1,2.955-3.742,2.955a3.748,3.748,0,0,1-1.954-.477l-.095-.214.571-1.62.214-.071a2.412,2.412,0,0,0,1.168.31c.619,0,1.071-.191,1.548-1.263l.6-1.287-4.86-10.961.142-.191h2.574l3.454,8.483,3.431-8.483h2.335Z" transform="translate(-309.233 -347.7)" fill="#fff"/>
      <path id="Path_26" data-name="Path 26" d="M429.4,348.037a1.8,1.8,0,1,1,1.787,1.811A1.8,1.8,0,0,1,429.4,348.037Zm.5,3.812h2.573v11.914H429.9Z" transform="translate(-313.98 -346.25)" fill="#fff"/>
      <path id="Path_27" data-name="Path 27" d="M448.753,357.968v7.172h-2.62v-6.958a2.736,2.736,0,0,0-2.883-3,2.845,2.845,0,0,0-2.978,3v6.958H437.65V353.226h2.287v1.549a4.963,4.963,0,0,1,8.815,3.193Z" transform="translate(-315.677 -347.626)" fill="#fff"/>
      <path id="Path_28" data-name="Path 28" d="M459.609,356.47a7.968,7.968,0,0,1,8.2-8.03,8.123,8.123,0,0,1,6.434,3.05v.214l-1.669,1.334h-.191a5.713,5.713,0,0,0-4.551-2.216,5.648,5.648,0,0,0,0,11.294,5.713,5.713,0,0,0,4.551-2.216h.191l1.669,1.334v.215a8.1,8.1,0,0,1-6.457,3.05A7.962,7.962,0,0,1,459.609,356.47Z" transform="translate(-320.195 -346.701)" fill="#fff"/>
      <path id="Path_29" data-name="Path 29" d="M490.544,357.872v7.267H488.3v-1.358a5.586,5.586,0,0,1-3.955,1.644c-2.788,0-4.67-1.525-4.67-3.836,0-2.407,2.049-4.027,5.1-4.027a8.671,8.671,0,0,1,3.335.739v-.786c0-1.5-1.287-2.526-3.1-2.526a5.65,5.65,0,0,0-3.36,1.191h-.191l-.953-1.453v-.191a7.841,7.841,0,0,1,4.742-1.6C488.4,352.94,490.544,354.536,490.544,357.872Zm-2.407,3.05-.025-.143v-.6a7.191,7.191,0,0,0-3.073-.81c-1.716,0-2.835.882-2.835,2.168,0,1.191,1.048,1.978,2.621,1.978C486.493,363.519,488.09,362.471,488.138,360.922Z" transform="translate(-324.325 -347.626)" fill="#fff"/>
      <path id="Path_30" data-name="Path 30" d="M496.928,348.037a1.8,1.8,0,1,1,1.787,1.811A1.8,1.8,0,0,1,496.928,348.037Zm.5,3.812H500v11.914h-2.573Z" transform="translate(-327.874 -346.25)" fill="#fff"/>
      <path id="Path_31" data-name="Path 31" d="M512.588,353.512l-.643,1.906-.215.1a2.364,2.364,0,0,0-1.31-.286c-1.62,0-2.645,1.406-2.645,3.312v6.6h-2.6V353.226h2.287V354.8a3.693,3.693,0,0,1,3.217-1.859,4.01,4.01,0,0,1,1.787.381Z" transform="translate(-329.571 -347.626)" fill="#fff"/>
      <path id="Path_32" data-name="Path 32" d="M514.838,359.183a6.448,6.448,0,1,1,6.433,6.243A6.191,6.191,0,0,1,514.838,359.183Zm10.293,0a3.85,3.85,0,1,0-3.859,3.979A3.787,3.787,0,0,0,525.131,359.183Z" transform="translate(-331.559 -347.626)" fill="#fff"/>
    </g>
    <g id="Group_48" data-name="Group 48" transform="translate(48.512)">
      <path id="Path_33" data-name="Path 33" d="M291.821,334.287h-2.645V321.04h-5V318.8h12.652v2.24h-5Z" transform="translate(-284.172 -316.775)" fill="#fff"/>
      <path id="Path_34" data-name="Path 34" d="M313.708,326.918v7.172h-2.6v-6.958a2.747,2.747,0,0,0-2.883-3,2.851,2.851,0,0,0-3,3v6.958h-2.573V318.126l2.383-.286.191.143v5.385a4.954,4.954,0,0,1,8.483,3.55Z" transform="translate(-287.974 -316.577)" fill="#fff"/>
      <path id="Path_35" data-name="Path 35" d="M321.965,329.825a3.728,3.728,0,0,0,3.908,3.526,5,5,0,0,0,3.717-1.573h.214l1.31,1.191v.191a6.885,6.885,0,0,1-5.314,2.264,6.105,6.105,0,0,1-6.409-6.219,6.029,6.029,0,0,1,6.147-6.266,5.92,5.92,0,0,1,4.241,1.644,6.085,6.085,0,0,1,1.763,4.407,4.021,4.021,0,0,1-.071.834Zm.024-1.786h6.981a3.583,3.583,0,0,0-.953-2.073,3.581,3.581,0,0,0-6.028,2.073Z" transform="translate(-291.418 -317.626)" fill="#fff"/>
      <path id="Path_36" data-name="Path 36" d="M358.265,334.073l-.12.215H355.5l-1.383-3.145h-7.553l-1.406,3.145h-2.55l-.119-.215,7.2-15.273h1.43Zm-5-4.931-2.883-6.576-2.931,6.576Z" transform="translate(-296.171 -316.775)" fill="#fff"/>
      <path id="Path_37" data-name="Path 37" d="M383.668,327.967v7.172h-2.6v-6.958c0-1.81-1-3-2.716-3a2.839,2.839,0,0,0-2.955,3v6.958h-2.621v-6.958c0-1.81-1-3-2.716-3a2.82,2.82,0,0,0-2.93,3v6.958h-2.621V323.226H366.8V324.8a4.693,4.693,0,0,1,3.884-1.859,4.424,4.424,0,0,1,3.979,2.073,5.015,5.015,0,0,1,4.217-2.073C381.833,322.94,383.668,324.989,383.668,327.967Z" transform="translate(-300.702 -317.626)" fill="#fff"/>
      <path id="Path_38" data-name="Path 38" d="M394.024,329.825a3.728,3.728,0,0,0,3.908,3.526,5,5,0,0,0,3.717-1.573h.214l1.311,1.191v.191a6.885,6.885,0,0,1-5.314,2.264,6.105,6.105,0,0,1-6.409-6.219,6.029,6.029,0,0,1,6.147-6.266,5.92,5.92,0,0,1,4.241,1.644,6.085,6.085,0,0,1,1.763,4.407,4.019,4.019,0,0,1-.071.834Zm.024-1.786h6.981a3.584,3.584,0,0,0-.953-2.073,3.581,3.581,0,0,0-6.028,2.073Z" transform="translate(-306.244 -317.626)" fill="#fff"/>
      <path id="Path_39" data-name="Path 39" d="M417.34,323.512l-.643,1.906-.214.1a2.368,2.368,0,0,0-1.31-.286c-1.62,0-2.645,1.406-2.645,3.312v6.6h-2.6V323.226h2.287V324.8a3.694,3.694,0,0,1,3.217-1.859,4.005,4.005,0,0,1,1.786.381Z" transform="translate(-310.046 -317.626)" fill="#fff"/>
      <path id="Path_40" data-name="Path 40" d="M421.419,318.037a1.8,1.8,0,1,1,1.787,1.811A1.8,1.8,0,0,1,421.419,318.037Zm.5,3.812h2.574v11.913h-2.574Z" transform="translate(-312.41 -316.25)" fill="#fff"/>
      <path id="Path_41" data-name="Path 41" d="M428.62,329.183a6.17,6.17,0,0,1,6.409-6.243,6.278,6.278,0,0,1,4.861,2.1v.191l-1.477,1.31H438.2a4.281,4.281,0,0,0-3.121-1.334,3.98,3.98,0,0,0,.071,7.958,3.888,3.888,0,0,0,3.05-1.334h.214l1.477,1.311v.191a6.276,6.276,0,0,1-4.861,2.1A6.171,6.171,0,0,1,428.62,329.183Z" transform="translate(-313.892 -317.626)" fill="#fff"/>
      <path id="Path_42" data-name="Path 42" d="M455.294,327.872v7.267h-2.239v-1.358a5.586,5.586,0,0,1-3.955,1.644c-2.788,0-4.67-1.525-4.67-3.836,0-2.406,2.049-4.026,5.1-4.026a8.693,8.693,0,0,1,3.336.738v-.786c0-1.5-1.287-2.526-3.1-2.526a5.65,5.65,0,0,0-3.36,1.191h-.191l-.953-1.453v-.191a7.841,7.841,0,0,1,4.742-1.6C453.15,322.94,455.294,324.536,455.294,327.872Zm-2.406,3.05-.024-.144v-.6a7.209,7.209,0,0,0-3.074-.81c-1.716,0-2.835.882-2.835,2.168,0,1.191,1.048,1.978,2.621,1.978C451.244,333.519,452.84,332.47,452.888,330.922Z" transform="translate(-317.145 -317.626)" fill="#fff"/>
      <path id="Path_43" data-name="Path 43" d="M473.352,327.967v7.172h-2.621v-6.958a2.735,2.735,0,0,0-2.883-3,2.845,2.845,0,0,0-2.978,3v6.958h-2.621V323.226h2.287v1.549a4.963,4.963,0,0,1,8.816,3.192Z" transform="translate(-320.811 -317.626)" fill="#fff"/>
    </g>
    <g id="Group_49" data-name="Group 49" transform="translate(0 1.96)">
      <path id="Path_44" data-name="Path 44" d="M238.971,321.432v1.511l3.518,1.144V322.8h12.069v7.644l2.842,3.911a.374.374,0,0,0,.681-.214h0V318.719H237.472a.375.375,0,0,0-.266.639h0l1.545,1.545h0a.744.744,0,0,1,.219.53Z" transform="translate(-225.974 -318.718)" fill="#fff"/>
      <path id="Path_45" data-name="Path 45" d="M242.974,343.307v-9.161a.749.749,0,0,0-.52-.713l-3-.975v9.161a.75.75,0,0,0,.52.714Z" transform="translate(-226.46 -321.545)" fill="#fff"/>
      <path id="Path_46" data-name="Path 46" d="M226.156,342.223l1.438.467,2.175-2.993-1.228-.4,3.73-11.478,7.27,2.362,4.6-1.494a.378.378,0,0,0,.247-.242.374.374,0,0,0-.241-.472h0L229.48,323.21h0l-6.369,19.6h0a.375.375,0,0,0,.526.45h0l1.947-.992h0a.751.751,0,0,1,.572-.045Z" transform="translate(-223.093 -319.642)" fill="#fff"/>
      <path id="Path_47" data-name="Path 47" d="M248.172,349.6l-8.713-2.831a.75.75,0,0,0-.84.274l-1.853,2.55,8.713,2.832a.75.75,0,0,0,.839-.275Z" transform="translate(-225.906 -324.483)" fill="#fff"/>
      <path id="Path_48" data-name="Path 48" d="M242.455,361.161l.889-1.224-2.175-2.993-.758,1.044-9.764-7.094,4.493-6.184v-4.835a.382.382,0,0,0-.154-.31.375.375,0,0,0-.523.083h0L225.4,352.123h0l16.671,12.114h0a.375.375,0,0,0,.523-.083.371.371,0,0,0,.067-.277h0l-.342-2.157h0a.746.746,0,0,1,.133-.558Z" transform="translate(-223.568 -322.993)" fill="#fff"/>
      <path id="Path_49" data-name="Path 49" d="M255.954,344.766l-5.385,7.412a.75.75,0,0,0,0,.883l1.853,2.55,5.385-7.412a.75.75,0,0,0,0-.883Z" transform="translate(-228.717 -324.077)" fill="#fff"/>
      <path id="Path_50" data-name="Path 50" d="M265.736,353.571l-.889-1.224-3.519,1.144.759,1.044-9.764,7.093-4.493-6.184-4.6-1.494a.375.375,0,0,0-.425.574h0L251.871,367h0l16.673-12.112h0a.375.375,0,0,0-.16-.673h0l-2.157-.342h0a.747.747,0,0,1-.489-.3Z" transform="translate(-227.135 -325.637)" fill="#fff"/>
      <path id="Path_51" data-name="Path 51" d="M254.014,336.827l5.384,7.411a.749.749,0,0,0,.84.272l3-.974-5.385-7.412a.751.751,0,0,0-.84-.272Z" transform="translate(-229.455 -322.236)" fill="#fff"/>
      <path id="Path_52" data-name="Path 52" d="M265.383,325.646l-1.438.467v3.7l1.228-.4,3.729,11.479-7.27,2.362-2.841,3.911a.374.374,0,0,0,.415.581h0l14.663-4.765h0l-6.368-19.6h0a.375.375,0,0,0-.689-.056h0l-.991,1.947h0a.747.747,0,0,1-.436.372Z" transform="translate(-230.422 -319.624)" fill="#fff"/>
      <path id="Path_53" data-name="Path 53" d="M245.67,336.189l8.712-2.832a.748.748,0,0,0,.518-.715V329.49l-8.713,2.831a.749.749,0,0,0-.518.716Z" transform="translate(-227.738 -320.934)" fill="#fff"/>
    </g>
  </g>
</svg>
